<?xml version="1.0" encoding="UTF-8"?>
<!DOCTYPE svg PUBLIC "-//W3C//DTD SVG 1.1//EN" "http://www.w3.org/Graphics/SVG/1.1/DTD/svg11.dtd">
<svg xmlns="http://www.w3.org/2000/svg" version="1.1" width="4096px" height="4096px" style="shape-rendering:geometricPrecision; text-rendering:geometricPrecision; image-rendering:optimizeQuality; fill-rule:evenodd; clip-rule:evenodd" xmlns:xlink="http://www.w3.org/1999/xlink">
<g><path style="opacity:1" fill="#fc3f1d" d="M 1990.5,3.5 C 2403.66,-5.30581 2785.33,98.8609 3135.5,316C 3445.08,512.897 3685.91,773.064 3858,1096.5C 4037.91,1443.51 4113.91,1812.17 4086,2202.5C 4052.66,2610.36 3912.33,2975.7 3665,3298.5C 3416.71,3615.64 3102.55,3842.14 2722.5,3978C 2387.98,4092.68 2046.32,4120.68 1697.5,4062C 1332.99,3996.87 1009.99,3846.2 728.5,3610C 464.346,3384.94 268.513,3110.78 141,2787.5C 17.1046,2463 -23.2288,2128.33 20,1783.5C 74.2164,1385.75 229.216,1034.09 485,728.5C 710.056,464.346 984.223,268.513 1307.5,141C 1527.42,56.2501 1755.08,10.4168 1990.5,3.5 Z"/></g>
<g><path style="opacity:1" fill="#fffefe" d="M 2099.5,764.5 C 2327.5,764.5 2555.5,764.5 2783.5,764.5C 2783.17,1619.67 2783.5,2474.67 2784.5,3329.5C 2637.86,3330.5 2489.19,3330.83 2338.5,3330.5C 2338.5,2590.83 2338.5,1851.17 2338.5,1111.5C 2257.5,1111.33 2176.5,1111.5 2095.5,1112C 2029.22,1114.52 1964.22,1124.85 1900.5,1143C 1832.78,1162.85 1772.11,1195.18 1718.5,1240C 1649.6,1301.6 1606.43,1378.1 1589,1469.5C 1581.24,1511.5 1578.58,1553.83 1581,1596.5C 1581.9,1671.56 1594.57,1744.56 1619,1815.5C 1645.21,1885.31 1683.55,1947.31 1734,2001.5C 1779.13,2048.43 1827.63,2091.26 1879.5,2130C 1897.66,2143.58 1915.99,2156.91 1934.5,2170C 2027.16,2232.36 2119.5,2295.02 2211.5,2358C 1995.85,2682.14 1779.85,3005.97 1563.5,3329.5C 1403,3329.83 1242.67,3329.5 1082.5,3328.5C 1276.28,3039.55 1470.28,2750.71 1664.5,2462C 1609.05,2421.93 1555.05,2379.93 1502.5,2336C 1435.79,2279.29 1375.29,2216.79 1321,2148.5C 1209.99,2004.18 1150.32,1840.52 1142,1657.5C 1135.1,1552.47 1145.1,1449.13 1172,1347.5C 1228.08,1153.02 1343.58,1005.52 1518.5,905C 1622.8,847.341 1733.8,808.341 1851.5,788C 1933.53,773.442 2016.19,765.609 2099.5,764.5 Z"/></g>
<g><path style="opacity:1" fill="#fd9e8d" d="M 2099.5,764.5 C 2327.67,763.5 2556,763.167 2784.5,763.5C 2784.5,1618.83 2784.5,2474.17 2784.5,3329.5C 2783.5,2474.67 2783.17,1619.67 2783.5,764.5C 2555.5,764.5 2327.5,764.5 2099.5,764.5 Z"/></g>
<g><path style="opacity:1" fill="#febeb3" d="M 1082.5,3328.5 C 1242.67,3329.5 1403,3329.83 1563.5,3329.5C 1403,3330.83 1242.33,3330.83 1081.5,3329.5C 1081.62,3328.89 1081.96,3328.56 1082.5,3328.5 Z"/></g>
</svg>
